<?xml version="1.0" standalone="no"?>
<!DOCTYPE svg PUBLIC "-//W3C//DTD SVG 20010904//EN"
 "http://www.w3.org/TR/2001/REC-SVG-20010904/DTD/svg10.dtd">
<svg version="1.0" xmlns="http://www.w3.org/2000/svg"
 width="385.000000pt" height="385.000000pt" viewBox="0 0 385.000000 385.000000"
 preserveAspectRatio="xMidYMid meet">
<metadata>
Created by potrace 1.14, written by Peter Selinger 2001-2017
</metadata>
<g transform="translate(0.000000,385.000000) scale(0.100000,-0.100000)"
fill="#000000" stroke="none">
<path d="M1485 3170 c-3 -5 -2 -10 4 -10 5 0 13 5 16 10 3 6 2 10 -4 10 -5 0
-13 -4 -16 -10z"/>
<path d="M1447 3143 c-4 -3 -7 -13 -7 -22 1 -13 3 -13 11 2 11 19 8 33 -4 20z"/>
<path d="M2208 3096 l4 -33 -54 -7 c-79 -10 -128 -25 -128 -39 0 -8 -3 -8 -9
1 -5 8 -29 14 -57 15 -41 1 -49 -1 -46 -15 2 -13 -2 -16 -14 -11 -13 5 -15 2
-9 -18 4 -17 3 -20 -3 -10 -5 7 -15 11 -21 7 -6 -4 -13 4 -17 19 -4 17 -13 25
-28 25 -29 0 -39 10 -26 25 8 9 5 15 -7 19 -11 5 -22 1 -30 -9 -14 -21 -33
-11 -33 16 0 16 -4 19 -22 13 -12 -3 -28 -13 -36 -20 -22 -23 -46 -16 -60 16
-8 17 -18 30 -23 30 -5 0 -9 -13 -9 -30 0 -16 -5 -30 -11 -30 -5 0 -7 6 -3 13
5 7 1 6 -10 -3 -18 -14 -48 -33 -75 -46 -8 -4 -16 -3 -18 3 -2 5 -9 18 -16 28
-11 15 -13 12 -9 -19 2 -20 0 -36 -4 -36 -5 0 -32 -20 -59 -45 -28 -25 -56
-45 -62 -45 -7 0 -13 -5 -13 -11 0 -6 -7 -17 -15 -25 -16 -16 -15 -17 -28 26
-8 25 -27 -36 -27 -84 0 -27 -6 -48 -15 -56 -8 -7 -15 -18 -15 -24 0 -6 -11
-28 -25 -48 -22 -32 -25 -49 -29 -150 -4 -113 -14 -220 -22 -247 -4 -11 -8
-10 -20 5 -15 19 -15 19 -9 -1 14 -41 17 -95 7 -123 -6 -17 -6 -34 -1 -39 4
-4 10 -33 13 -63 7 -88 24 -182 35 -193 6 -6 11 -24 11 -39 0 -94 47 -268 72
-268 14 0 9 21 -12 47 -11 14 -20 40 -19 57 l1 31 10 -30 c16 -46 38 -67 55
-54 7 6 13 17 13 25 0 16 30 33 47 27 10 -3 11 26 7 129 -3 73 -5 147 -4 163
1 40 18 103 30 110 6 3 10 15 10 26 0 10 4 19 9 19 5 0 12 8 14 18 4 13 5 11
6 -5 0 -13 5 -23 10 -23 5 0 11 -11 15 -23 10 -42 46 -79 70 -73 15 4 27 -1
36 -14 12 -17 26 -20 95 -20 44 1 105 7 136 14 31 8 62 10 69 6 7 -5 19 -6 27
-3 7 3 13 0 13 -6 0 -6 -4 -11 -8 -11 -5 0 -9 -6 -9 -14 0 -20 24 -9 30 14 3
10 1 22 -4 27 -5 5 -1 17 10 29 10 11 24 38 31 60 7 21 20 48 29 58 11 13 13
20 4 23 -7 2 -9 11 -6 19 4 11 9 12 19 3 11 -9 14 -6 14 15 0 14 6 26 13 27 6
0 21 2 32 4 27 5 55 -35 63 -90 8 -50 65 -119 116 -140 46 -19 125 -27 176
-17 l45 9 -28 11 c-16 7 -40 12 -55 12 -15 1 -40 7 -57 14 l-30 13 39 8 c21 4
69 5 107 1 70 -6 75 -4 69 33 -4 34 -85 91 -129 91 -35 0 -61 9 -61 21 0 5 19
19 43 31 31 16 59 22 105 22 74 -1 75 9 6 49 -43 26 -56 29 -106 24 l-57 -5
32 26 c18 15 35 31 38 36 4 5 12 5 19 1 9 -5 11 -4 6 3 -4 6 -2 21 5 33 l11
21 22 -21 c21 -22 21 -22 2 -36 -18 -13 -18 -15 -2 -21 10 -4 22 -2 28 4 8 8
26 -4 65 -46 45 -48 53 -62 49 -87 -3 -16 -1 -39 4 -50 8 -19 9 -19 9 3 1 12
5 22 10 22 5 0 11 -10 14 -22 11 -45 30 -275 29 -353 -1 -76 11 -135 28 -135
13 0 20 29 14 60 -4 16 -3 42 1 57 7 26 8 26 15 8 15 -36 11 -169 -5 -191 -17
-23 -19 -38 -4 -28 20 12 38 69 39 125 2 49 18 147 27 159 2 2 8 -2 13 -10 7
-11 10 -5 10 21 0 20 7 54 16 75 10 23 18 82 22 153 3 77 10 120 19 129 19 19
16 49 -8 88 -12 20 -18 42 -14 53 7 23 -46 129 -92 181 -20 23 -27 50 -24 93
1 12 10 17 29 17 24 1 25 2 9 11 -14 8 -15 14 -7 24 8 10 8 16 -2 22 -7 4 -22
25 -33 46 l-20 39 -57 -4 c-31 -2 -55 -1 -52 4 3 4 -9 5 -26 2 -19 -4 -30 -2
-30 5 0 6 -11 11 -24 11 -39 0 -41 19 -6 55 30 31 32 36 19 52 -29 37 -42 42
-66 26 -32 -21 -53 -10 -53 28 0 30 -1 31 -18 16 -31 -28 -49 -21 -56 22 -5
31 -13 43 -38 55 -17 9 -32 16 -33 16 0 0 1 -15 3 -34z m-228 -97 c0 -6 -4 -7
-10 -4 -5 3 -10 1 -10 -6 0 -10 -3 -10 -12 -1 -10 10 -10 15 2 22 16 10 30 4
30 -11z m325 -618 c-3 -6 -11 -11 -17 -11 -6 0 -6 6 2 15 14 17 26 13 15 -4z
m-835 -111 c0 -5 -4 -10 -10 -10 -5 0 -10 5 -10 10 0 6 5 10 10 10 6 0 10 -4
10 -10z m236 -63 c12 -12 2 -14 -86 -22 l-85 -7 25 22 c21 18 34 21 82 18 32
-2 61 -7 64 -11z m678 -60 c59 -33 58 -53 0 -23 -27 14 -61 28 -76 32 -16 3
-25 11 -22 16 8 13 49 2 98 -25z m-671 16 c-7 -2 -21 -2 -30 0 -10 3 -4 5 12
5 17 0 24 -2 18 -5z m52 -62 c3 -5 1 -12 -5 -16 -5 -3 -10 1 -10 9 0 18 6 21
15 7z m-517 -310 c3 -8 -1 -12 -9 -9 -7 2 -15 10 -17 17 -3 8 1 12 9 9 7 -2
15 -10 17 -17z m-31 -33 c-3 -8 -6 -5 -6 6 -1 11 2 17 5 13 3 -3 4 -12 1 -19z"/>
<path d="M1877 1893 c-45 -33 -49 -34 -61 -17 -13 17 -14 16 -25 -5 -14 -26
-6 -61 15 -61 8 0 26 -11 39 -24 20 -20 29 -23 65 -16 23 4 46 12 52 18 6 6
22 7 45 0 32 -9 39 -7 60 15 24 23 27 24 54 10 24 -12 33 -12 44 -3 22 18 18
36 -12 60 -21 16 -35 20 -61 15 -18 -3 -39 -2 -45 3 -7 6 -31 15 -55 22 -24 6
-49 13 -55 15 -7 2 -34 -12 -60 -32z"/>
<path d="M2240 1842 c0 -12 63 -92 72 -92 4 0 8 -9 8 -19 0 -10 7 -21 15 -25
8 -3 15 -12 15 -19 0 -18 54 -41 75 -33 32 12 17 51 -32 86 -27 19 -67 51 -90
72 -41 37 -63 47 -63 30z"/>
<path d="M1710 1770 c0 -5 4 -10 9 -10 6 0 13 5 16 10 3 6 -1 10 -9 10 -9 0
-16 -4 -16 -10z"/>
<path d="M1460 1733 c-8 -4 -18 -11 -22 -17 -13 -20 -8 -97 8 -132 18 -37 13
-54 -9 -36 -10 9 -17 8 -25 0 -16 -16 -15 -37 3 -88 8 -24 14 -45 12 -47 -2
-2 -16 30 -32 72 -15 41 -30 75 -34 75 -3 0 -12 -14 -19 -30 -8 -17 -17 -28
-21 -25 -4 2 -21 0 -37 -5 l-29 -8 31 -1 c27 -1 41 -12 89 -71 31 -38 63 -70
70 -70 14 0 28 -35 25 -64 -1 -10 3 -15 8 -12 6 3 12 -1 15 -8 3 -8 1 -17 -6
-20 -9 -3 -8 -7 2 -14 7 -5 17 -33 22 -60 9 -58 31 -109 59 -140 11 -12 20
-30 20 -40 0 -11 15 -30 35 -43 19 -13 35 -27 35 -31 0 -4 25 -32 56 -62 43
-44 62 -56 87 -57 18 0 26 -3 19 -6 -10 -4 -10 -8 -1 -19 17 -20 60 -18 66 4
6 23 39 44 73 46 17 1 39 15 59 38 18 20 42 38 54 40 12 2 23 11 25 21 5 24
33 58 43 51 4 -2 13 12 19 31 6 19 14 34 18 34 23 -4 42 3 42 14 0 7 14 26 30
42 l31 29 -36 18 c-19 10 -35 23 -35 29 0 6 -9 9 -20 6 -13 -3 -20 0 -20 9 0
8 -9 14 -20 14 -25 0 -63 37 -54 52 5 7 0 9 -14 6 -12 -4 -48 2 -81 13 -54 16
-63 17 -90 3 -17 -8 -35 -13 -41 -9 -5 3 -18 1 -29 -4 -14 -8 -24 -6 -41 9
-24 21 -46 27 -35 10 3 -5 1 -10 -4 -10 -6 0 -11 5 -11 12 0 9 -3 9 -11 1 -14
-14 -28 -2 -46 40 -7 15 -17 27 -23 27 -6 0 -8 15 -4 40 8 47 -4 64 -73 108
-41 26 -70 73 -57 94 22 35 69 21 134 -40 16 -15 36 -22 64 -22 34 0 105 -5
139 -9 5 -1 5 -5 2 -11 -3 -5 10 -16 30 -24 19 -8 35 -20 35 -25 0 -17 57 -13
64 4 3 8 0 15 -7 15 -7 1 -2 9 10 19 21 17 21 20 5 26 -9 4 -44 10 -77 14 -44
4 -61 10 -63 22 -2 9 5 20 15 23 35 14 247 18 285 5 20 -6 45 -8 55 -4 10 4
33 7 51 6 28 -2 33 1 30 16 -2 12 -15 20 -40 24 -20 3 -43 10 -50 15 -31 23
-121 46 -158 41 -22 -3 -56 -1 -76 3 -27 6 -49 4 -83 -9 -25 -10 -61 -22 -78
-26 -29 -6 -34 -4 -43 20 -8 20 -15 25 -30 20 -13 -4 -27 1 -42 15 -18 17 -35
21 -83 20 -33 -1 -80 1 -105 3 -25 3 -52 3 -60 0z"/>
<path d="M1310 1621 c0 -11 29 -35 35 -29 10 9 -7 38 -21 38 -8 0 -14 -4 -14
-9z"/>
<path d="M2044 1529 c-3 -6 -1 -16 5 -22 9 -9 14 -8 21 3 9 15 4 30 -10 30 -5
0 -12 -5 -16 -11z"/>
<path d="M1431 734 c0 -11 3 -14 6 -6 3 7 2 16 -1 19 -3 4 -6 -2 -5 -13z"/>
</g>
</svg>
